<svg viewBox="0 0 72 72" xmlns="http://www.w3.org/2000/svg"><path clip-rule="evenodd" d="m20.653 28.0593c-9.3502 5.3379-15.653 15.4033-15.653 26.9407 0 .3346.0053.668.01582 1h61.96838c.0105-.332.0158-.6654.0158-1 0-11.5374-6.3028-21.6028-15.653-26.9407l4.853-8.4057c.5523-.9566.2245-2.1798-.7321-2.7321-.9565-.5522-2.1797-.2245-2.732.7321l-4.9928 8.6478c-3.6219-1.4835-7.587-2.3014-11.7431-2.3014s-8.1212.8179-11.743 2.3014l-4.9929-8.6478c-.5523-.9566-1.7755-1.2844-2.732-.7321-.9566.5523-1.2844 1.7755-.7321 2.7321z" fill="#b1cc33" fill-rule="evenodd"/><path d="m20.653 27.0593.4958.8684c.2311-.1319.4001-.3504.4695-.6072.0695-.2569.0338-.5308-.0992-.7612zm-15.63718 27.9407-.99949.0317c.0171.5397.45954.9683.99949.9683zm61.96838 0v1c.5399 0 .9824-.4286.9995-.9683zm-15.6372-27.9407-.8661-.5c-.133.2304-.1687.5043-.0992.7612.0695.2568.2384.4753.4695.6072zm4.853-8.4057.866.5zm-.7321-2.7321.5-.866zm-2.732.7321-.866-.5zm-4.9928 8.6478-.3791.9254c.463.1897.9949.008 1.2451-.4254zm-23.4861 0-.8661.5c.2502.4333.7821.6151 1.2451.4254zm-4.9929-8.6478-.866.5zm-2.732-.7321-.5-.866zm-.7321 2.7321-.866.5zm-9.8 35.3464c0-11.164 6.0976-20.905 15.1488-26.0723l-.9915-1.7369c-9.6493 5.5087-16.1573 15.8983-16.1573 27.8092zm.01532.9683c-.01019-.3215-.01532-.6443-.01532-.9683h-2c0 .3452.00547.6891.01633 1.0317zm60.96888-.9683h-61.96838v2h61.96838zm-.9842 0c0 .324-.0051.6468-.0153.9683l1.999.0634c.0108-.3426.0163-.6865.0163-1.0317zm-15.1488-26.0723c9.0512 5.1673 15.1488 14.9083 15.1488 26.0723h2c0-11.9109-6.508-22.3005-16.1573-27.8091zm4.4828-9.7741-4.8531 8.4057 1.7321 1 4.853-8.4057zm-.3661-1.366c.4783.2761.6422.8877.3661 1.366l1.732 1c.8285-1.4349.3368-3.2697-1.0981-4.0981zm-1.366.366c.2762-.4783.8878-.6422 1.366-.366l1-1.7321c-1.4348-.8284-3.2696-.3368-4.098 1.0981zm-4.9928 8.6478 4.9928-8.6478-1.732-1-4.9929 8.6478zm-12.6091-1.8014c4.0239 0 7.8603.7917 11.364 2.2268l.7581-1.8507c-3.7401-1.532-7.8338-2.3761-12.1221-2.3761zm-11.364 2.2268c3.5037-1.4351 7.3401-2.2268 11.364-2.2268v-2c-4.2883 0-8.382.8441-12.1221 2.3761zm.487-1.4254-4.9929-8.6478-1.732 1 4.9928 8.6478zm-4.9929-8.6478c-.8284-1.4349-2.6632-1.9265-4.098-1.0981l.9999 1.7321c.4783-.2762 1.0899-.1123 1.3661.366zm-4.098-1.0981c-1.4349.8284-1.9266 2.6632-1.0981 4.0981l1.732-1c-.2761-.4783-.1122-1.0899.3661-1.366zm-1.0981 4.0981 4.853 8.4057 1.7321-1-4.8531-8.4057z"/><circle cx="22.5" cy="42.5" r="2.5"/><circle cx="49.5" cy="42.5" r="2.5"/></svg>