<svg enable-background="new 0 0 32 32" viewBox="0 0 32 32" xmlns="http://www.w3.org/2000/svg"><path d="m30 30.36h-6c-.199 0-.36-.161-.36-.36v-2.64h-4.28v2.64c0 .199-.161.36-.36.36h-6c-.199 0-.36-.161-.36-.36v-2.64h-4.28v2.64c0 .199-.161.36-.36.36h-6c-.199 0-.36-.161-.36-.36v-6c0-.199.161-.36.36-.36h2.64v-4.28h-2.64c-.199 0-.36-.161-.36-.36v-6c0-.199.161-.36.36-.36h2.64v-4.28h-2.64c-.199 0-.36-.161-.36-.36v-6c0-.199.161-.36.36-.36h6c.199 0 .36.161.36.36v2.64h4.28v-2.64c0-.199.161-.36.36-.36h6c.199 0 .36.161.36.36v2.64h4.279v-2.64c0-.199.161-.36.36-.36h6c.199 0 .36.161.36.36v6c0 .199-.161.36-.36.36h-2.64v4.28h2.641c.199 0 .36.161.36.36v6c0 .199-.161.36-.36.36h-2.64v4.279h2.64c.199 0 .36.161.36.36v6c0 .2-.161.361-.36.361zm-5.64-.72h5.279v-5.28h-5.279zm-11 0h5.28v-5.28h-5.28zm-11 0h5.28v-5.28h-5.28zm17-3h4.279v-2.64c0-.199.161-.36.36-.36h2.64v-4.28h-2.639c-.199 0-.36-.161-.36-.36v-2.64h-4.28v2.64c0 .199-.161.36-.36.36h-2.64v4.279h2.64c.199 0 .36.161.36.36zm-11 0h4.28v-2.64c0-.199.161-.36.36-.36h2.64v-4.28h-2.64c-.199 0-.36-.161-.36-.36v-2.64h-4.28v2.64c0 .199-.161.36-.36.36h-2.64v4.279h2.64c.199 0 .36.161.36.36zm18.64-8h2.64v-5.28h-5.28v5.28zm-11 0h2.64v-5.28h-5.28v5.28zm-11 0h2.64v-5.28h-5.28v5.28zm14.36-3h4.279v-2.64c0-.199.161-.36.36-.36h2.64v-4.28h-2.639c-.199 0-.36-.161-.36-.36v-2.64h-4.28v2.64c0 .199-.161.36-.36.36h-2.64v4.28h2.64c.199 0 .36.161.36.36zm-11 0h4.28v-2.64c0-.199.161-.36.36-.36h2.64v-4.28h-2.64c-.199 0-.36-.161-.36-.36v-2.64h-4.28v2.64c0 .199-.161.36-.36.36h-2.64v4.28h2.64c.199 0 .36.161.36.36zm18.64-8h2.64v-5.28h-5.28v5.28zm-11 0h2.64v-5.28h-5.28v5.28zm-11 0h2.64v-5.28h-5.28v5.28z"/><path d="m0 0h32v32h-32z" fill="none"/></svg>