<svg width="266" height="65" viewBox="0 0 266 65" fill="none" xmlns="http://www.w3.org/2000/svg">
<path d="M69.5834 21.2969C70.003 21.2969 70.3564 21.1755 70.6436 20.9288C70.927 20.6859 71.1516 20.384 71.3209 20.0306C71.4866 19.6772 71.6927 19.1692 71.9393 18.4992L76.7102 5.37939H78.433L83.6603 18.7495C83.7855 19.0735 83.9254 19.4784 84.0726 19.957C84.2199 20.4392 84.3119 20.8478 84.3524 21.1791C84.8898 21.1313 85.361 21.1055 85.766 21.1055V22.9903H79.1692V21.3706C79.9533 21.3706 80.3472 21.0429 80.3472 20.384C80.3472 20.0601 80.2589 19.6698 80.0822 19.206L79.5815 17.8661L74.2659 17.9544L73.8683 19.1177C73.8168 19.2465 73.7063 19.541 73.5296 20.0012C73.3603 20.4539 73.213 20.8221 73.0879 21.1055C73.6069 21.0577 74.1849 21.0319 74.8254 21.0319V22.9903H69.5834V21.2969ZM78.9778 16.1285L77.844 13.051C77.3728 11.7184 77.0636 10.5993 76.9163 9.69377H76.8869C76.6218 10.8718 76.3163 11.954 75.974 12.9332L74.8843 16.1285H78.9778Z" fill="#000048"/>
<path d="M87.0869 21.3705C87.5287 21.3521 87.86 21.2969 88.0882 21.2086C88.3238 21.1202 88.5042 20.9288 88.633 20.6343C88.7692 20.3398 88.8392 19.876 88.8392 19.2354V9.84099C88.8392 8.92805 88.8686 8.1918 88.9275 7.63226L87.0869 7.70589V5.82111L94.2285 5.79166C96.2678 5.79166 97.998 6.20027 99.4116 7.01382C100.833 7.82 101.889 8.86915 102.577 10.1649C103.273 11.4534 103.623 12.808 103.623 14.229C103.623 15.672 103.288 17.0635 102.622 18.3961C101.963 19.7214 100.917 20.822 99.4852 21.6945C98.0606 22.5596 96.2678 22.9903 94.1107 22.9903H87.0869V21.3705ZM94.626 21.1938C95.7635 21.1938 96.717 20.8957 97.4826 20.2956C98.2557 19.6882 98.8263 18.8968 99.1907 17.9249C99.5625 16.9531 99.7503 15.8929 99.7503 14.7444C99.7503 12.2632 99.2386 10.4263 98.2189 9.23727C97.2066 8.04088 95.7782 7.44084 93.934 7.44084C93.3744 7.44084 92.9768 7.58072 92.7413 7.85313C92.5057 8.12922 92.3879 8.68509 92.3879 9.51704V18.9704C92.3879 19.8833 92.351 20.6196 92.2848 21.1791C92.3731 21.1607 92.5277 21.1497 92.756 21.1497L93.8162 21.1791C94.0223 21.1902 94.291 21.1938 94.626 21.1938Z" fill="#000048"/>
<path d="M105.703 21.3705C106.145 21.3521 106.477 21.2969 106.705 21.2085C106.94 21.1202 107.121 20.9287 107.25 20.6342C107.386 20.3397 107.456 19.8759 107.456 19.2354V9.84094C107.456 8.928 107.485 8.19176 107.544 7.63221L105.703 7.70584V5.82106H112.742V7.44079C112.3 7.45184 111.965 7.50705 111.741 7.60277C111.512 7.69111 111.332 7.88254 111.196 8.17703C111.067 8.47153 111.004 8.93904 111.004 9.57589V13.4044H117.748V9.84094C117.748 8.74394 117.782 8.0077 117.851 7.63221L116.011 7.70584V5.82106H123.049V7.44079C122.608 7.45184 122.273 7.50705 122.048 7.60277C121.82 7.69111 121.639 7.88254 121.503 8.17703C121.374 8.47153 121.312 8.93904 121.312 9.57589V18.9703C121.312 19.8833 121.275 20.6195 121.209 21.1791C121.739 21.1312 122.35 21.1054 123.049 21.1054V22.9902H116.011V21.3705C116.453 21.3521 116.784 21.2969 117.012 21.2085C117.248 21.1202 117.428 20.9287 117.557 20.6342C117.682 20.3397 117.748 19.8759 117.748 19.2354V15.2597L111.004 15.3333V18.9703C111.004 19.8833 110.968 20.6195 110.901 21.1791C111.431 21.1312 112.043 21.1054 112.742 21.1054V22.9902H105.703V21.3705Z" fill="#000048"/>
<path d="M125.498 21.3705C125.94 21.3521 126.271 21.2969 126.499 21.2085C126.735 21.1202 126.915 20.9287 127.044 20.6342C127.18 20.3397 127.25 19.8759 127.25 19.2354V9.84094C127.25 8.928 127.279 8.19176 127.338 7.63221L125.498 7.70584V5.82106H132.536V7.44079C132.094 7.45184 131.76 7.50705 131.535 7.60277C131.307 7.69111 131.126 7.88254 130.99 8.17703C130.861 8.47153 130.799 8.93904 130.799 9.57589V18.9703C130.799 19.8833 130.762 20.6195 130.696 21.1791C131.226 21.1312 131.837 21.1054 132.536 21.1054V22.9902H125.498V21.3705Z" fill="#000048"/>
<path d="M134.99 21.3705C135.431 21.3521 135.763 21.2969 135.991 21.2085C136.226 21.1202 136.407 20.9288 136.536 20.6343C136.672 20.3398 136.742 19.8759 136.742 19.2354V9.84097C136.742 8.92803 136.771 8.19179 136.83 7.63224L134.99 7.70587V5.82109L141.954 5.76219C144.163 5.75483 145.89 6.19657 147.138 7.08743C148.393 7.97092 149.022 9.32192 149.022 11.1368C149.022 12.0718 148.761 12.9626 148.242 13.8167C147.719 14.6707 146.935 15.3701 145.886 15.9076C144.833 16.4487 143.559 16.7432 142.057 16.7911L141.1 16.8058L140.291 16.7911V18.9409C140.291 19.8759 140.254 20.6195 140.187 21.1791C140.718 21.1312 141.413 21.1055 142.278 21.1055V22.9902H134.99V21.3705ZM141.395 15.0241C142.72 15.0241 143.685 14.6965 144.296 14.0375C144.914 13.3712 145.223 12.3994 145.223 11.122C145.223 8.6998 144.126 7.485 141.94 7.485C141.358 7.485 140.938 7.61016 140.673 7.85312C140.416 8.09976 140.291 8.62617 140.291 9.42867V14.9505C140.633 15.002 141.001 15.0241 141.395 15.0241Z" fill="#000048"/>
<path d="M149.544 21.2969C149.963 21.2969 150.317 21.1755 150.604 20.9288C150.887 20.6859 151.112 20.384 151.281 20.0306C151.447 19.6772 151.653 19.1692 151.9 18.4992L156.671 5.37939H158.393L163.621 18.7495C163.746 19.0735 163.886 19.4784 164.033 19.957C164.18 20.4392 164.272 20.8478 164.313 21.1791C164.85 21.1313 165.321 21.1055 165.726 21.1055V22.9903H159.13V21.3706C159.914 21.3706 160.308 21.0429 160.308 20.384C160.308 20.0601 160.219 19.6698 160.043 19.206L159.542 17.8661L154.226 17.9544L153.829 19.1177C153.777 19.2465 153.667 19.541 153.49 20.0012C153.321 20.4539 153.173 20.8221 153.048 21.1055C153.567 21.0577 154.145 21.0319 154.786 21.0319V22.9903H149.544V21.2969ZM158.938 16.1285L157.804 13.051C157.333 11.7184 157.024 10.5993 156.877 9.69377H156.847C156.582 10.8718 156.277 11.954 155.934 12.9332L154.845 16.1285H158.938Z" fill="#000048"/>
<path d="M73.8976 55.2965C74.3394 55.2781 74.6707 55.2229 74.8989 55.1346C75.1345 55.0462 75.3149 54.8548 75.4437 54.5603C75.5689 54.2658 75.6352 53.802 75.6352 53.1614V41.411H74.5161C73.5442 41.4331 72.7969 41.7607 72.2779 42.3976C71.7552 43.0381 71.4975 43.9989 71.4975 45.2837H69.8777L69.9955 39.7471H84.8676L85.0149 45.2837H83.3951C83.3951 43.9989 83.1227 43.0271 82.5853 42.3681C82.0552 41.7018 81.3189 41.3742 80.3766 41.3816H79.1986V52.8964C79.1986 53.986 79.1618 54.7223 79.0955 55.1051C79.633 55.0573 80.2882 55.0315 81.0539 55.0315V56.9163H73.8976V55.2965Z" fill="#000048"/>
<path d="M86.6454 55.2965C87.0872 55.2781 87.4185 55.2229 87.6467 55.1346C87.8823 55.0462 88.0627 54.8548 88.1915 54.5603C88.3277 54.2658 88.3977 53.802 88.3977 53.1614V43.767C88.3977 42.8541 88.4271 42.1178 88.486 41.5583L86.6454 41.6319V39.7471H98.9112L99.0585 44.5032H97.4387C97.4387 43.2958 97.1479 42.4638 96.57 42C95.9883 41.5288 95.2926 41.3079 94.479 41.3374L93.5955 41.3668C93.2016 41.3779 92.8887 41.4331 92.6531 41.5288C92.4249 41.6172 92.2482 41.8196 92.1231 42.1325C92.0053 42.4381 91.9464 42.8945 91.9464 43.5019V47.1832H94.8177C94.7956 46.8997 94.7625 46.1892 94.7146 45.0481H96.6141V50.9969H94.9944C94.9944 50.349 94.8913 49.8741 94.6852 49.5686C94.479 49.2557 94.2066 49.0532 93.8753 48.9649C93.5514 48.8692 93.117 48.8287 92.5795 48.8471L91.9464 48.8765V52.8964C91.9464 53.7799 91.9095 54.4977 91.8433 55.0462H95.1416C95.9736 55.0462 96.6804 54.7664 97.262 54.2069C97.84 53.64 98.1308 52.7418 98.1308 51.5123H99.7211L99.6033 56.9163H86.6454V55.2965Z" fill="#000048"/>
<path d="M110.005 57.3139C108.345 57.3139 106.876 56.9311 105.603 56.1654C104.336 55.3923 103.35 54.3358 102.643 52.9995C101.936 51.6669 101.583 50.1945 101.583 48.5821C101.583 47.0213 101.91 45.5341 102.569 44.1205C103.236 42.7069 104.211 41.5583 105.499 40.6749C106.795 39.7914 108.349 39.3496 110.167 39.3496C110.822 39.3496 111.529 39.4601 112.288 39.6736C113.053 39.8797 113.753 40.1742 114.393 40.5571H114.423L114.32 39.5263H116.204V45.2396H114.614C114.172 42.5228 112.796 41.1461 110.491 41.1166C109.39 41.1166 108.463 41.4406 107.708 42.0884C106.95 42.7363 106.383 43.5904 106 44.6506C105.625 45.7108 105.441 46.8556 105.441 48.0815C105.441 49.495 105.639 50.754 106.044 51.851C106.457 52.9406 107.046 53.7947 107.811 54.4131C108.584 55.0242 109.512 55.3261 110.594 55.3261C111.632 55.3261 112.656 55.0573 113.657 54.5162C114.666 53.9787 115.516 53.2425 116.204 52.3075L117.382 53.3824C116.3 54.877 115.115 55.9077 113.819 56.4746C112.531 57.0342 111.261 57.3139 110.005 57.3139Z" fill="#000048"/>
<path d="M118.826 55.2965C119.268 55.2781 119.599 55.2229 119.827 55.1346C120.063 55.0462 120.243 54.8548 120.372 54.5603C120.508 54.2658 120.578 53.802 120.578 53.1614V43.767C120.578 42.8541 120.608 42.1178 120.667 41.5583L118.826 41.6319V39.7471H125.864V41.3668C125.423 41.3779 125.088 41.4331 124.863 41.5288C124.635 41.6172 124.455 41.8086 124.318 42.1031C124.19 42.3976 124.127 42.8651 124.127 43.5019V47.3304H130.871V43.767C130.871 42.67 130.904 41.9338 130.974 41.5583L129.133 41.6319V39.7471H136.172V41.3668C135.73 41.3779 135.395 41.4331 135.171 41.5288C134.942 41.6172 134.762 41.8086 134.626 42.1031C134.497 42.3976 134.434 42.8651 134.434 43.5019V52.8964C134.434 53.8093 134.398 54.5456 134.331 55.1051C134.861 55.0573 135.472 55.0315 136.172 55.0315V56.9163H129.133V55.2965C129.575 55.2781 129.906 55.2229 130.135 55.1346C130.37 55.0462 130.551 54.8548 130.679 54.5603C130.805 54.2658 130.871 53.802 130.871 53.1614V49.1857L124.127 49.2594V52.8964C124.127 53.8093 124.09 54.5456 124.024 55.1051C124.554 55.0573 125.165 55.0315 125.864 55.0315V56.9163H118.826V55.2965Z" fill="#000048"/>
<path d="M143.818 47.1243C143.413 46.6052 142.967 45.9904 142.478 45.2837H142.448L142.507 52.8964C142.507 53.8093 142.47 54.5456 142.404 55.1051C142.923 55.0573 143.538 55.0315 144.245 55.0315V56.9163H138.649V55.2965C139.091 55.2781 139.422 55.2229 139.651 55.1346C139.886 55.0462 140.067 54.8548 140.195 54.5603C140.321 54.2658 140.387 53.802 140.387 53.1614L140.343 43.767C140.343 42.67 140.376 41.9338 140.446 41.5583L138.576 41.6319V39.7471H142.434L149.928 49.2152C150.613 50.1208 151.187 50.8938 151.651 51.5417H151.681V43.767C151.681 42.7068 151.703 41.9706 151.754 41.5583L149.914 41.6319V39.7471H155.509V41.3668C155.067 41.3779 154.729 41.4331 154.493 41.5288C154.265 41.6172 154.085 41.8086 153.948 42.1031C153.82 42.3976 153.757 42.8651 153.757 43.5019V57.1666H151.681L143.818 47.1243Z" fill="#000048"/>
<path d="M165.752 57.3139C163.787 57.3139 162.167 56.8832 160.893 56.0181C159.616 55.1457 158.684 54.0303 158.095 52.6756C157.506 51.3209 157.212 49.8742 157.212 48.3318C157.212 46.8814 157.54 45.4678 158.198 44.091C158.854 42.7179 159.833 41.5841 161.129 40.6896C162.425 39.7987 163.989 39.3496 165.826 39.3496C167.711 39.3496 169.29 39.7987 170.567 40.6896C171.852 41.5841 172.806 42.7179 173.424 44.091C174.05 45.4678 174.366 46.8814 174.366 48.3318C174.366 49.7564 174.035 51.1589 173.38 52.5431C172.732 53.9198 171.753 55.0573 170.45 55.9592C169.154 56.8648 167.586 57.3139 165.752 57.3139ZM166.003 55.5175C167.063 55.5175 167.924 55.1862 168.594 54.5162C169.272 53.8389 169.757 52.9922 170.052 51.9688C170.346 50.9381 170.494 49.8632 170.494 48.7441C170.494 46.4286 170.081 44.5843 169.257 43.2075C168.44 41.8344 167.232 41.1461 165.635 41.1461C164.552 41.1461 163.669 41.4921 162.984 42.1768C162.296 42.8652 161.806 43.7339 161.512 44.7831C161.217 45.8249 161.07 46.9108 161.07 48.0373C161.07 49.1858 161.232 50.3344 161.556 51.4829C161.887 52.6241 162.425 53.5812 163.161 54.3542C163.904 55.131 164.854 55.5175 166.003 55.5175Z" fill="#000048"/>
<path d="M176.442 55.2965C176.884 55.2781 177.215 55.2229 177.443 55.1346C177.679 55.0462 177.859 54.8548 177.988 54.5603C178.124 54.2658 178.194 53.802 178.194 53.1614V43.767C178.194 42.8541 178.223 42.1178 178.282 41.5583L176.442 41.6319V39.7471H183.48V41.3668C183.038 41.3779 182.704 41.4331 182.479 41.5288C182.251 41.6172 182.07 41.8086 181.934 42.1031C181.805 42.3976 181.743 42.8651 181.743 43.5019V52.8964C181.743 53.7799 181.706 54.4977 181.64 55.0462H184.938C185.917 55.0389 186.679 54.6928 187.22 54.0155C187.758 53.3308 188.03 52.3332 188.03 51.0263H189.665L189.517 56.9163H176.442V55.2965Z" fill="#000048"/>
<path d="M199.429 57.3139C197.463 57.3139 195.843 56.8832 194.569 56.0181C193.292 55.1457 192.361 54.0303 191.772 52.6756C191.183 51.3209 190.888 49.8742 190.888 48.3318C190.888 46.8814 191.216 45.4678 191.875 44.091C192.53 42.7179 193.509 41.5841 194.805 40.6896C196.101 39.7987 197.665 39.3496 199.502 39.3496C201.387 39.3496 202.966 39.7987 204.244 40.6896C205.528 41.5841 206.482 42.7179 207.1 44.091C207.726 45.4678 208.043 46.8814 208.043 48.3318C208.043 49.7564 207.711 51.1589 207.056 52.5431C206.408 53.9198 205.429 55.0573 204.126 55.9592C202.83 56.8648 201.262 57.3139 199.429 57.3139ZM199.679 55.5175C200.739 55.5175 201.601 55.1862 202.271 54.5162C202.948 53.8389 203.434 52.9922 203.728 51.9688C204.023 50.9381 204.17 49.8632 204.17 48.7441C204.17 46.4286 203.758 44.5843 202.933 43.2075C202.116 41.8344 200.908 41.1461 199.311 41.1461C198.229 41.1461 197.345 41.4921 196.66 42.1768C195.972 42.8652 195.482 43.7339 195.188 44.7831C194.893 45.8249 194.746 46.9108 194.746 48.0373C194.746 49.1858 194.908 50.3344 195.232 51.4829C195.563 52.6241 196.101 53.5812 196.837 54.3542C197.581 55.131 198.53 55.5175 199.679 55.5175Z" fill="#000048"/>
<path d="M218.114 57.3139C216.384 57.3139 214.893 56.9311 213.638 56.1654C212.39 55.3923 211.433 54.3469 210.766 53.029C210.107 51.7148 209.78 50.2313 209.78 48.5821C209.78 47.0213 210.104 45.5341 210.752 44.1205C211.4 42.7069 212.36 41.5583 213.638 40.6749C214.922 39.7914 216.472 39.3496 218.291 39.3496C218.998 39.3496 219.793 39.4601 220.676 39.6736C221.567 39.8797 222.329 40.1742 222.959 40.5571H222.973L222.885 39.5263H224.77V45.2396H223.179C222.962 43.9143 222.443 42.9057 221.619 42.2062C220.801 41.4995 219.8 41.1387 218.615 41.1166C217.532 41.1166 216.616 41.4406 215.861 42.0884C215.114 42.7363 214.551 43.5904 214.168 44.6506C213.792 45.7108 213.608 46.8556 213.608 48.0815C213.608 50.2607 214.054 52.024 214.948 53.3677C215.85 54.7039 217.113 55.3702 218.732 55.3702C219.252 55.3702 219.852 55.3187 220.529 55.2083C221.214 55.0905 221.769 54.9248 222.193 54.7076V52.4253C222.193 51.5123 222.226 50.7761 222.296 50.2166C221.862 50.257 221.46 50.2755 221.088 50.2755L220.455 50.2902V48.4054H226.978V50.0251C226.566 50.0472 226.246 50.1061 226.021 50.2018C225.793 50.3012 225.624 50.5037 225.506 50.8055C225.388 51.1 225.329 51.5528 225.329 52.1602V56.077H224.74C224.365 56.077 223.993 56.1212 223.621 56.2096C223.257 56.2905 222.789 56.4157 222.222 56.5924C221.368 56.839 220.65 57.0194 220.072 57.1372C219.502 57.255 218.85 57.3139 218.114 57.3139Z" fill="#000048"/>
<path d="M228.613 55.2965C229.055 55.2781 229.386 55.2229 229.614 55.1346C229.85 55.0462 230.03 54.8548 230.159 54.5603C230.295 54.2658 230.365 53.802 230.365 53.1614V43.767C230.365 42.8541 230.394 42.1178 230.453 41.5583L228.613 41.6319V39.7471H235.651V41.3668C235.21 41.3779 234.875 41.4331 234.65 41.5288C234.422 41.6172 234.241 41.8086 234.105 42.1031C233.976 42.3976 233.914 42.8651 233.914 43.5019V52.8964C233.914 53.8093 233.877 54.5456 233.811 55.1051C234.341 55.0573 234.952 55.0315 235.651 55.0315V56.9163H228.613V55.2965Z" fill="#000048"/>
<path d="M238.105 55.2965C238.546 55.2781 238.878 55.2229 239.106 55.1346C239.342 55.0462 239.522 54.8548 239.651 54.5603C239.787 54.2658 239.857 53.802 239.857 53.1614V43.767C239.857 42.8541 239.886 42.1178 239.945 41.5583L238.105 41.6319V39.7471H250.37L250.518 44.5032H248.898C248.898 43.2958 248.607 42.4638 248.029 42C247.448 41.5288 246.752 41.3079 245.938 41.3374L245.055 41.3668C244.661 41.3779 244.348 41.4331 244.112 41.5288C243.884 41.6172 243.707 41.8196 243.582 42.1325C243.464 42.4381 243.406 42.8945 243.406 43.5019V47.1832H246.277C246.255 46.8997 246.222 46.1892 246.174 45.0481H248.073V50.9969H246.454C246.454 50.349 246.351 49.8741 246.144 49.5686C245.938 49.2557 245.666 49.0532 245.335 48.9649C245.011 48.8692 244.576 48.8287 244.039 48.8471L243.406 48.8765V52.8964C243.406 53.7799 243.369 54.4977 243.302 55.0462H246.601C247.433 55.0462 248.14 54.7664 248.721 54.2069C249.299 53.64 249.59 52.7418 249.59 51.5123H251.18L251.062 56.9163H238.105V55.2965Z" fill="#000048"/>
<path d="M259.713 57.3139C259.043 57.3139 258.328 57.2035 257.563 56.99C256.804 56.7765 256.109 56.482 255.472 56.1065H255.457L255.531 57.1372H253.631V51.3945H255.251C255.465 52.7419 255.98 53.7726 256.797 54.4868C257.622 55.1935 258.616 55.5469 259.786 55.5469C260.64 55.5469 261.34 55.3224 261.892 54.8696C262.451 54.4205 262.731 53.8757 262.731 53.2351C262.731 52.7161 262.543 52.2707 262.172 51.8952C261.807 51.5123 261.399 51.2178 260.95 51.0117C260.508 50.7982 259.794 50.4926 258.814 50.0988C257.018 49.3846 255.638 48.5674 254.677 47.6544C253.723 46.7341 253.248 45.5267 253.248 44.0321C253.248 43.2885 253.432 42.5596 253.808 41.8528C254.18 41.1387 254.795 40.5423 255.649 40.0711C256.51 39.5926 257.622 39.3496 258.976 39.3496C259.683 39.3496 260.419 39.4527 261.185 39.6588C261.958 39.865 262.599 40.1558 263.099 40.5276H263.129L263.026 39.5263H264.94V45.2396H263.32C263.114 43.8959 262.643 42.8762 261.907 42.1768C261.178 41.47 260.25 41.1166 259.124 41.1166C258.395 41.1166 257.762 41.3191 257.224 41.7203C256.694 42.1253 256.429 42.6259 256.429 43.2223C256.429 43.9511 256.731 44.5585 257.342 45.0481C257.949 45.5414 258.969 46.0789 260.405 46.6679C262.054 47.3158 263.398 48.0741 264.439 48.9355C265.477 49.7895 266 50.9307 266 52.3517C266 53.3161 265.735 54.1739 265.205 54.9285C264.682 55.6868 263.946 56.2758 262.996 56.6955C262.054 57.1078 260.957 57.3139 259.713 57.3139Z" fill="#000048"/>
<mask id="mask0_508_3653" style="mask-type:luminance" maskUnits="userSpaceOnUse" x="0" y="0" width="62" height="65">
<path d="M0 0H61.4909V64.3181H0V0Z" fill="white"/>
</mask>
<g mask="url(#mask0_508_3653)">
<mask id="mask1_508_3653" style="mask-type:luminance" maskUnits="userSpaceOnUse" x="0" y="0" width="62" height="65">
<path d="M35.1777 29.9504H7.84476C6.78458 29.9504 6.01888 28.938 6.30234 27.9183L13.8083 1.17436C13.9997 0.482292 14.6292 0.00741577 15.3471 0.00741577H42.68C43.7402 0.00741577 44.5096 1.01975 44.2225 2.03944L36.7165 28.7834C36.5251 29.4718 35.8956 29.9504 35.1777 29.9504ZM17.4233 50.1344L21.2885 36.3667C21.5757 35.347 20.8063 34.3347 19.7461 34.3347H5.69494C4.98078 34.3347 4.34761 34.8096 4.15619 35.5016L0.290923 49.273C0.00378799 50.2927 0.773161 51.3051 1.83335 51.3051H15.8845C16.6024 51.3051 17.2318 50.8265 17.4233 50.1344ZM24.5354 35.5016L17.0294 62.2456C16.7422 63.2653 17.5116 64.2776 18.5718 64.2776H45.9048C46.6226 64.2776 47.2521 63.7991 47.4435 63.1107L54.9495 36.3667C55.2366 35.347 54.4673 34.3347 53.4071 34.3347H26.0741C25.3563 34.3347 24.7268 34.8096 24.5354 35.5016ZM43.8286 14.1469L39.9633 27.9183C39.6799 28.938 40.4455 29.9504 41.5057 29.9504H55.5569C56.2747 29.9504 56.9042 29.4718 57.0957 28.7834L60.9609 15.012C61.2481 13.9923 60.4787 12.98 59.4185 12.98H45.3673C44.6532 12.98 44.0237 13.4586 43.8286 14.1469Z" fill="white"/>
</mask>
<g mask="url(#mask1_508_3653)">
<path d="M0.00378418 0.00738525V64.2776H61.2481V0.00738525H0.00378418Z" fill="#000048"/>
</g>
</g>
</svg>
