<svg width="232" height="56" viewBox="0 0 232 56" fill="none" xmlns="http://www.w3.org/2000/svg">
<path d="M60.5845 18.5426C60.9499 18.5426 61.2576 18.4368 61.5075 18.2221C61.7543 18.0105 61.9499 17.7477 62.0973 17.44C62.2415 17.1323 62.421 16.69 62.6358 16.1067L66.7896 4.68359H68.2896L72.8409 16.3246C72.9499 16.6067 73.0717 16.9592 73.1999 17.3759C73.3281 17.7958 73.4082 18.1515 73.4434 18.44C73.9114 18.3983 74.3217 18.3759 74.6742 18.3759V20.0169H68.9306V18.6067C69.6133 18.6067 69.9563 18.3214 69.9563 17.7477C69.9563 17.4656 69.8793 17.1259 69.7255 16.7221L69.2896 15.5554L64.6614 15.6323L64.3152 16.6451C64.2704 16.7573 64.1742 17.0137 64.0204 17.4144C63.8729 17.8086 63.7447 18.1291 63.6358 18.3759C64.0877 18.3342 64.5909 18.3118 65.1486 18.3118V20.0169H60.5845V18.5426ZM68.764 14.0426L67.7768 11.3631C67.3665 10.2028 67.0973 9.22847 66.9691 8.44H66.9434C66.7127 9.46565 66.4467 10.408 66.1486 11.2605L65.1999 14.0426H68.764Z" fill="#F2F2F2"/>
<path d="M75.824 18.6071C76.2086 18.591 76.4971 18.543 76.6958 18.466C76.9009 18.3891 77.0579 18.2225 77.1701 17.966C77.2887 17.7096 77.3496 17.3058 77.3496 16.7481V8.56861C77.3496 7.77374 77.3753 7.13271 77.4265 6.64553L75.824 6.70964V5.06861L82.0419 5.04297C83.8176 5.04297 85.324 5.39874 86.5547 6.10707C87.7919 6.80899 88.7118 7.72246 89.3112 8.85066C89.9169 9.97246 90.2214 11.1519 90.2214 12.3891C90.2214 13.6455 89.9297 14.8571 89.3496 16.0173C88.7759 17.1712 87.8656 18.1295 86.6188 18.8891C85.3785 19.6423 83.8176 20.0173 81.9394 20.0173H75.824V18.6071ZM82.3881 18.4532C83.3785 18.4532 84.2086 18.1936 84.8753 17.6712C85.5483 17.1423 86.0451 16.4532 86.3624 15.6071C86.6862 14.7609 86.8496 13.8378 86.8496 12.8378C86.8496 10.6776 86.4041 9.07823 85.5163 8.04297C84.6349 7.0013 83.3913 6.47887 81.7855 6.47887C81.2983 6.47887 80.9522 6.60066 80.7471 6.83784C80.5419 7.07823 80.4394 7.5622 80.4394 8.28656V16.5173C80.4394 17.3122 80.4073 17.9532 80.3496 18.4404C80.4265 18.4244 80.5612 18.4148 80.7599 18.4148L81.6829 18.4404C81.8624 18.45 82.0964 18.4532 82.3881 18.4532Z" fill="#F2F2F2"/>
<path d="M92.0332 18.6068C92.4178 18.5908 92.7063 18.5427 92.905 18.4658C93.1101 18.3889 93.2672 18.2222 93.3794 17.9658C93.4979 17.7094 93.5588 17.3055 93.5588 16.7478V8.56836C93.5588 7.77349 93.5845 7.13246 93.6358 6.64528L92.0332 6.70939V5.06836H98.1614V6.47862C97.7768 6.48823 97.4851 6.53631 97.2896 6.61964C97.0909 6.69656 96.9338 6.86323 96.8153 7.11964C96.7031 7.37605 96.6486 7.7831 96.6486 8.33759V11.6709H102.52V8.56836C102.52 7.61323 102.549 6.97221 102.61 6.64528L101.008 6.70939V5.06836H107.136V6.47862C106.751 6.48823 106.459 6.53631 106.264 6.61964C106.065 6.69656 105.908 6.86323 105.79 7.11964C105.677 7.37605 105.623 7.7831 105.623 8.33759V16.5171C105.623 17.312 105.591 17.953 105.533 18.4402C105.995 18.3985 106.527 18.3761 107.136 18.3761V20.0171H101.008V18.6068C101.392 18.5908 101.681 18.5427 101.879 18.4658C102.084 18.3889 102.242 18.2222 102.354 17.9658C102.463 17.7094 102.52 17.3055 102.52 16.7478V13.2863L96.6486 13.3504V16.5171C96.6486 17.312 96.6165 17.953 96.5588 18.4402C97.0204 18.3985 97.5524 18.3761 98.1614 18.3761V20.0171H92.0332V18.6068Z" fill="#F2F2F2"/>
<path d="M109.267 18.6068C109.652 18.5908 109.94 18.5427 110.139 18.4658C110.344 18.3889 110.501 18.2222 110.613 17.9658C110.732 17.7094 110.793 17.3055 110.793 16.7478V8.56836C110.793 7.77349 110.818 7.13246 110.87 6.64528L109.267 6.70939V5.06836H115.395V6.47862C115.011 6.48823 114.719 6.53631 114.524 6.61964C114.325 6.69656 114.168 6.86323 114.049 7.11964C113.937 7.37605 113.882 7.7831 113.882 8.33759V16.5171C113.882 17.312 113.85 17.953 113.793 18.4402C114.254 18.3985 114.786 18.3761 115.395 18.3761V20.0171H109.267V18.6068Z" fill="#F2F2F2"/>
<path d="M117.532 18.6069C117.916 18.5909 118.205 18.5428 118.404 18.4659C118.609 18.389 118.766 18.2223 118.878 17.9659C118.996 17.7095 119.057 17.3056 119.057 16.7479V8.56845C119.057 7.77358 119.083 7.13255 119.134 6.64537L117.532 6.70948V5.06845L123.596 5.01717C125.519 5.01076 127.022 5.39537 128.109 6.17101C129.202 6.94025 129.75 8.11653 129.75 9.69666C129.75 10.5108 129.522 11.2864 129.07 12.03C128.615 12.7736 127.932 13.3826 127.019 13.8505C126.102 14.3217 124.993 14.5781 123.686 14.6197L122.852 14.6326L122.147 14.6197V16.4915C122.147 17.3056 122.115 17.9531 122.057 18.4402C122.519 18.3986 123.125 18.3761 123.878 18.3761V20.0172H117.532V18.6069ZM123.109 13.0813C124.263 13.0813 125.102 12.796 125.634 12.2223C126.173 11.6422 126.442 10.796 126.442 9.68384C126.442 7.57486 125.487 6.51717 123.583 6.51717C123.077 6.51717 122.711 6.62614 122.48 6.83768C122.256 7.05243 122.147 7.51076 122.147 8.20948V13.0172C122.445 13.062 122.766 13.0813 123.109 13.0813Z" fill="#F2F2F2"/>
<path d="M130.204 18.5426C130.569 18.5426 130.877 18.4368 131.127 18.2221C131.374 18.0105 131.569 17.7477 131.717 17.44C131.861 17.1323 132.04 16.69 132.255 16.1067L136.409 4.68359H137.909L142.46 16.3246C142.569 16.6067 142.691 16.9592 142.819 17.3759C142.947 17.7958 143.028 18.1515 143.063 18.44C143.531 18.3983 143.941 18.3759 144.294 18.3759V20.0169H138.55V18.6067C139.233 18.6067 139.576 18.3214 139.576 17.7477C139.576 17.4656 139.499 17.1259 139.345 16.7221L138.909 15.5554L134.281 15.6323L133.935 16.6451C133.89 16.7573 133.794 17.0137 133.64 17.4144C133.492 17.8086 133.364 18.1291 133.255 18.3759C133.707 18.3342 134.21 18.3118 134.768 18.3118V20.0169H130.204V18.5426ZM138.383 14.0426L137.396 11.3631C136.986 10.2028 136.717 9.22847 136.588 8.44H136.563C136.332 9.46565 136.066 10.408 135.768 11.2605L134.819 14.0426H138.383Z" fill="#F2F2F2"/>
<path d="M64.3406 48.1454C64.7252 48.1294 65.0137 48.0813 65.2124 48.0044C65.4175 47.9274 65.5746 47.7608 65.6867 47.5044C65.7957 47.248 65.8534 46.8441 65.8534 46.2864V36.0557H64.879C64.0329 36.0749 63.3822 36.3601 62.9303 36.9146C62.4752 37.4723 62.2508 38.3089 62.2508 39.4274H60.8406L60.9431 34.6069H73.8919L74.0201 39.4274H72.6098C72.6098 38.3089 72.3726 37.4627 71.9047 36.889C71.4431 36.3089 70.8021 36.0236 69.9816 36.03H68.956V46.0557C68.956 47.0044 68.9239 47.6454 68.8662 47.9787C69.3342 47.9371 69.9047 47.9146 70.5713 47.9146V49.5557H64.3406V48.1454Z" fill="#F2F2F2"/>
<path d="M75.4399 48.1454C75.8246 48.1294 76.113 48.0813 76.3117 48.0044C76.5169 47.9274 76.6739 47.7608 76.7861 47.5044C76.9047 47.248 76.9656 46.8441 76.9656 46.2864V38.1069C76.9656 37.3121 76.9912 36.671 77.0425 36.1839L75.4399 36.248V34.6069H86.1194L86.2476 38.748H84.8374C84.8374 37.6967 84.5842 36.9723 84.081 36.5685C83.5746 36.1582 82.9688 35.9659 82.2605 35.9915L81.4912 36.0172C81.1483 36.0268 80.8758 36.0749 80.6707 36.1582C80.472 36.2351 80.3181 36.4114 80.2092 36.6839C80.1066 36.9499 80.0553 37.3473 80.0553 37.8762V41.0813H82.5553C82.5361 40.8345 82.5072 40.2159 82.4656 39.2223H84.1194V44.4018H82.7092C82.7092 43.8377 82.6194 43.4242 82.4399 43.1582C82.2605 42.8858 82.0233 42.7095 81.7348 42.6326C81.4528 42.5492 81.0746 42.514 80.6066 42.53L80.0553 42.5557V46.0557C80.0553 46.8249 80.0233 47.4499 79.9656 47.9274H82.8374C83.5617 47.9274 84.1771 47.6839 84.6835 47.1967C85.1867 46.7031 85.4399 45.921 85.4399 44.8505H86.8246L86.722 49.5557H75.4399V48.1454Z" fill="#F2F2F2"/>
<path d="M95.7786 49.9018C94.3331 49.9018 93.0543 49.5684 91.9453 48.9018C90.8427 48.2287 89.9838 47.3088 89.3684 46.1454C88.753 44.9851 88.4453 43.7031 88.4453 42.2992C88.4453 40.9402 88.7306 39.6454 89.3043 38.4146C89.8844 37.1838 90.7338 36.1838 91.8556 35.4146C92.9838 34.6454 94.3363 34.2607 95.9197 34.2607C96.4902 34.2607 97.1056 34.3569 97.7658 34.5428C98.4325 34.7223 99.0415 34.9787 99.5992 35.312H99.6248L99.5351 34.4146H101.176V39.3889H99.7915C99.4069 37.0236 98.2081 35.8248 96.2017 35.7992C95.2434 35.7992 94.4357 36.0813 93.7786 36.6454C93.1184 37.2095 92.6248 37.953 92.2915 38.8761C91.9645 39.7992 91.8043 40.796 91.8043 41.8633C91.8043 43.0941 91.9774 44.1902 92.3299 45.1454C92.6889 46.0941 93.2017 46.8377 93.8684 47.3761C94.5415 47.9082 95.3492 48.171 96.2915 48.171C97.1953 48.171 98.0863 47.937 98.9581 47.4659C99.8363 46.9979 100.577 46.3569 101.176 45.5428L102.202 46.4787C101.259 47.78 100.227 48.6774 99.0992 49.171C97.9774 49.6582 96.8716 49.9018 95.7786 49.9018Z" fill="#F2F2F2"/>
<path d="M103.458 48.1454C103.843 48.1294 104.131 48.0813 104.33 48.0044C104.535 47.9274 104.692 47.7608 104.804 47.5044C104.923 47.248 104.984 46.8441 104.984 46.2864V38.1069C104.984 37.3121 105.01 36.671 105.061 36.1839L103.458 36.248V34.6069H109.586V36.0172C109.202 36.0268 108.91 36.0749 108.715 36.1582C108.516 36.2351 108.359 36.4018 108.24 36.6582C108.128 36.9146 108.074 37.3217 108.074 37.8762V41.2095H113.945V38.1069C113.945 37.1518 113.974 36.5108 114.035 36.1839L112.433 36.248V34.6069H118.561V36.0172C118.176 36.0268 117.885 36.0749 117.689 36.1582C117.49 36.2351 117.333 36.4018 117.215 36.6582C117.102 36.9146 117.048 37.3217 117.048 37.8762V46.0557C117.048 46.8505 117.016 47.4916 116.958 47.9787C117.42 47.9371 117.952 47.9146 118.561 47.9146V49.5557H112.433V48.1454C112.817 48.1294 113.106 48.0813 113.304 48.0044C113.51 47.9274 113.667 47.7608 113.779 47.5044C113.888 47.248 113.945 46.8441 113.945 46.2864V42.8249L108.074 42.889V46.0557C108.074 46.8505 108.042 47.4916 107.984 47.9787C108.445 47.9371 108.977 47.9146 109.586 47.9146V49.5557H103.458V48.1454Z" fill="#F2F2F2"/>
<path d="M125.218 41.03C124.866 40.5781 124.478 40.0428 124.051 39.4274H124.026L124.077 46.0557C124.077 46.8505 124.045 47.4916 123.987 47.9787C124.439 47.9371 124.975 47.9146 125.59 47.9146V49.5557H120.718V48.1454C121.103 48.1294 121.391 48.0813 121.59 48.0044C121.795 47.9274 121.952 47.7608 122.064 47.5044C122.173 47.248 122.231 46.8441 122.231 46.2864L122.193 38.1069C122.193 37.1518 122.221 36.5108 122.282 36.1839L120.654 36.248V34.6069H124.013L130.539 42.8505C131.135 43.639 131.635 44.3121 132.039 44.8762H132.064V38.1069C132.064 37.1839 132.084 36.5428 132.128 36.1839L130.526 36.248V34.6069H135.398V36.0172C135.013 36.0268 134.718 36.0749 134.513 36.1582C134.314 36.2351 134.157 36.4018 134.039 36.6582C133.926 36.9146 133.872 37.3217 133.872 37.8762V49.7736H132.064L125.218 41.03Z" fill="#F2F2F2"/>
<path d="M144.316 49.9018C142.604 49.9018 141.194 49.5268 140.085 48.7736C138.973 48.0139 138.162 47.0428 137.649 45.8633C137.136 44.6838 136.88 43.4242 136.88 42.0813C136.88 40.8184 137.165 39.5877 137.739 38.3889C138.309 37.1934 139.162 36.2063 140.29 35.4274C141.418 34.6518 142.781 34.2607 144.38 34.2607C146.021 34.2607 147.396 34.6518 148.508 35.4274C149.627 36.2063 150.457 37.1934 150.995 38.3889C151.54 39.5877 151.816 40.8184 151.816 42.0813C151.816 43.3216 151.527 44.5428 150.957 45.7479C150.393 46.9466 149.54 47.937 148.406 48.7223C147.277 49.5107 145.912 49.9018 144.316 49.9018ZM144.534 48.3377C145.457 48.3377 146.207 48.0492 146.79 47.4659C147.38 46.8761 147.803 46.1389 148.059 45.2479C148.316 44.3505 148.444 43.4146 148.444 42.4402C148.444 40.4242 148.085 38.8184 147.367 37.6197C146.656 36.4242 145.604 35.8248 144.213 35.8248C143.271 35.8248 142.502 36.1261 141.906 36.7223C141.306 37.3216 140.88 38.0781 140.623 38.9915C140.367 39.8986 140.239 40.8441 140.239 41.8248C140.239 42.8248 140.38 43.8248 140.662 44.8248C140.95 45.8184 141.418 46.6518 142.059 47.3248C142.707 48.0011 143.534 48.3377 144.534 48.3377Z" fill="#F2F2F2"/>
<path d="M153.623 48.1454C154.008 48.1294 154.296 48.0813 154.495 48.0044C154.7 47.9274 154.857 47.7608 154.969 47.5044C155.088 47.248 155.149 46.8441 155.149 46.2864V38.1069C155.149 37.3121 155.174 36.671 155.226 36.1839L153.623 36.248V34.6069H159.751V36.0172C159.367 36.0268 159.075 36.0749 158.879 36.1582C158.681 36.2351 158.524 36.4018 158.405 36.6582C158.293 36.9146 158.238 37.3217 158.238 37.8762V46.0557C158.238 46.8249 158.206 47.4499 158.149 47.9274H161.02C161.873 47.921 162.537 47.6198 163.008 47.03C163.476 46.4339 163.713 45.5653 163.713 44.4274H165.136L165.008 49.5557H153.623V48.1454Z" fill="#F2F2F2"/>
<path d="M173.637 49.9018C171.926 49.9018 170.516 49.5268 169.407 48.7736C168.294 48.0139 167.483 47.0428 166.971 45.8633C166.458 44.6838 166.201 43.4242 166.201 42.0813C166.201 40.8184 166.487 39.5877 167.06 38.3889C167.631 37.1934 168.483 36.2063 169.612 35.4274C170.74 34.6518 172.102 34.2607 173.701 34.2607C175.342 34.2607 176.717 34.6518 177.83 35.4274C178.948 36.2063 179.778 37.1934 180.317 38.3889C180.862 39.5877 181.137 40.8184 181.137 42.0813C181.137 43.3216 180.849 44.5428 180.278 45.7479C179.714 46.9466 178.862 47.937 177.727 48.7223C176.599 49.5107 175.233 49.9018 173.637 49.9018ZM173.855 48.3377C174.778 48.3377 175.528 48.0492 176.112 47.4659C176.701 46.8761 177.124 46.1389 177.381 45.2479C177.637 44.3505 177.766 43.4146 177.766 42.4402C177.766 40.4242 177.407 38.8184 176.689 37.6197C175.977 36.4242 174.926 35.8248 173.535 35.8248C172.592 35.8248 171.823 36.1261 171.227 36.7223C170.628 37.3216 170.201 38.0781 169.945 38.9915C169.689 39.8986 169.56 40.8441 169.56 41.8248C169.56 42.8248 169.701 43.8248 169.983 44.8248C170.272 45.8184 170.74 46.6518 171.381 47.3248C172.028 48.0011 172.855 48.3377 173.855 48.3377Z" fill="#F2F2F2"/>
<path d="M189.906 49.9018C188.4 49.9018 187.102 49.5684 186.009 48.9018C184.922 48.2287 184.089 47.3184 183.509 46.171C182.935 45.0268 182.65 43.7351 182.65 42.2992C182.65 40.9402 182.932 39.6454 183.496 38.4146C184.06 37.1838 184.896 36.1838 186.009 35.4146C187.127 34.6454 188.477 34.2607 190.06 34.2607C190.675 34.2607 191.368 34.3569 192.137 34.5428C192.912 34.7223 193.576 34.9787 194.124 35.312H194.137L194.06 34.4146H195.701V39.3889H194.316C194.127 38.2351 193.675 37.3569 192.957 36.7479C192.246 36.1325 191.374 35.8184 190.342 35.7992C189.4 35.7992 188.602 36.0813 187.945 36.6454C187.294 37.2095 186.804 37.953 186.47 38.8761C186.143 39.7992 185.983 40.796 185.983 41.8633C185.983 43.7607 186.371 45.296 187.15 46.4659C187.935 47.6293 189.034 48.2095 190.445 48.2095C190.896 48.2095 191.419 48.1646 192.009 48.0684C192.605 47.9659 193.089 47.8216 193.457 47.6325V45.6454C193.457 44.8505 193.486 44.2095 193.547 43.7223C193.169 43.7575 192.82 43.7736 192.496 43.7736L191.945 43.7864V42.1454H197.624V43.5556C197.265 43.5748 196.986 43.6261 196.791 43.7095C196.592 43.796 196.445 43.9723 196.342 44.2351C196.239 44.4915 196.188 44.8857 196.188 45.4146V48.8248H195.675C195.348 48.8248 195.025 48.8633 194.701 48.9402C194.384 49.0107 193.977 49.1197 193.483 49.2736C192.739 49.4883 192.114 49.6454 191.611 49.7479C191.114 49.8505 190.547 49.9018 189.906 49.9018Z" fill="#F2F2F2"/>
<path d="M199.047 48.1454C199.431 48.1294 199.72 48.0813 199.918 48.0044C200.124 47.9274 200.281 47.7608 200.393 47.5044C200.511 47.248 200.572 46.8441 200.572 46.2864V38.1069C200.572 37.3121 200.598 36.671 200.649 36.1839L199.047 36.248V34.6069H205.175V36.0172C204.79 36.0268 204.499 36.0749 204.303 36.1582C204.104 36.2351 203.947 36.4018 203.829 36.6582C203.717 36.9146 203.662 37.3217 203.662 37.8762V46.0557C203.662 46.8505 203.63 47.4916 203.572 47.9787C204.034 47.9371 204.566 47.9146 205.175 47.9146V49.5557H199.047V48.1454Z" fill="#F2F2F2"/>
<path d="M207.311 48.1454C207.696 48.1294 207.984 48.0813 208.183 48.0044C208.388 47.9274 208.545 47.7608 208.657 47.5044C208.776 47.248 208.837 46.8441 208.837 46.2864V38.1069C208.837 37.3121 208.863 36.671 208.914 36.1839L207.311 36.248V34.6069H217.991L218.119 38.748H216.709C216.709 37.6967 216.456 36.9723 215.952 36.5685C215.446 36.1582 214.84 35.9659 214.132 35.9915L213.363 36.0172C213.02 36.0268 212.747 36.0749 212.542 36.1582C212.343 36.2351 212.189 36.4114 212.081 36.6839C211.978 36.9499 211.927 37.3473 211.927 37.8762V41.0813H214.427C214.407 40.8345 214.379 40.2159 214.337 39.2223H215.991V44.4018H214.581C214.581 43.8377 214.491 43.4242 214.311 43.1582C214.132 42.8858 213.895 42.7095 213.606 42.6326C213.324 42.5492 212.946 42.514 212.478 42.53L211.927 42.5557V46.0557C211.927 46.8249 211.895 47.4499 211.837 47.9274H214.709C215.433 47.9274 216.048 47.6839 216.555 47.1967C217.058 46.7031 217.311 45.921 217.311 44.8505H218.696L218.593 49.5557H207.311V48.1454Z" fill="#F2F2F2"/>
<path d="M226.124 49.9018C225.541 49.9018 224.919 49.8056 224.253 49.6197C223.592 49.4338 222.986 49.1774 222.432 48.8505H222.419L222.483 49.7479H220.829V44.7479H222.24C222.426 45.921 222.874 46.8184 223.586 47.4402C224.304 48.0556 225.169 48.3633 226.188 48.3633C226.932 48.3633 227.541 48.1678 228.022 47.7736C228.509 47.3825 228.753 46.9082 228.753 46.3505C228.753 45.8986 228.589 45.5107 228.265 45.1838C227.948 44.8505 227.592 44.5941 227.201 44.4146C226.817 44.2287 226.195 43.9627 225.342 43.6197C223.778 42.9979 222.576 42.2864 221.74 41.4915C220.91 40.6902 220.496 39.6389 220.496 38.3377C220.496 37.6902 220.656 37.0556 220.983 36.4402C221.307 35.8184 221.842 35.2992 222.586 34.8889C223.336 34.4723 224.304 34.2607 225.483 34.2607C226.099 34.2607 226.74 34.3505 227.406 34.53C228.079 34.7095 228.637 34.9627 229.073 35.2864H229.099L229.009 34.4146H230.676V39.3889H229.265C229.086 38.2191 228.676 37.3313 228.035 36.7223C227.4 36.1069 226.592 35.7992 225.611 35.7992C224.977 35.7992 224.426 35.9755 223.958 36.3248C223.496 36.6774 223.265 37.1133 223.265 37.6325C223.265 38.2672 223.528 38.796 224.06 39.2223C224.589 39.6518 225.477 40.1197 226.727 40.6325C228.163 41.1966 229.333 41.8569 230.24 42.6069C231.144 43.3505 231.599 44.3441 231.599 45.5813C231.599 46.421 231.368 47.1678 230.906 47.8248C230.451 48.4851 229.81 48.9979 228.983 49.3633C228.163 49.7223 227.208 49.9018 226.124 49.9018Z" fill="#F2F2F2"/>
<mask id="mask0_508_3735" style="mask-type:luminance" maskUnits="userSpaceOnUse" x="0" y="0" width="54" height="56">
<path d="M0 0H53.5385V56H0V0Z" fill="white"/>
</mask>
<g mask="url(#mask0_508_3735)">
<mask id="mask1_508_3735" style="mask-type:luminance" maskUnits="userSpaceOnUse" x="0" y="0" width="54" height="56">
<path d="M30.6282 26.0771H6.83013C5.90705 26.0771 5.24039 25.1957 5.48718 24.3079L12.0224 1.0226C12.1891 0.420038 12.7372 0.00657654 13.3622 0.00657654H37.1603C38.0833 0.00657654 38.7532 0.887987 38.5032 1.77581L31.968 25.0611C31.8013 25.6604 31.2532 26.0771 30.6282 26.0771ZM15.1699 43.6508L18.5353 31.6636C18.7853 30.7758 18.1154 29.8944 17.1923 29.8944H4.95834C4.33654 29.8944 3.78526 30.3079 3.61859 30.9104L0.253208 42.9008C0.00320753 43.7886 0.67308 44.67 1.59616 44.67H13.8301C14.4551 44.67 15.0032 44.2534 15.1699 43.6508ZM21.3622 30.9104L14.8269 54.1957C14.5769 55.0835 15.2468 55.9649 16.1699 55.9649H39.968C40.593 55.9649 41.141 55.5482 41.3077 54.9489L47.843 31.6636C48.093 30.7758 47.4231 29.8944 46.5 29.8944H22.7019C22.0769 29.8944 21.5288 30.3079 21.3622 30.9104ZM38.1603 12.3175L34.7949 24.3079C34.5481 25.1957 35.2147 26.0771 36.1378 26.0771H48.3718C48.9968 26.0771 49.5449 25.6604 49.7115 25.0611L53.0769 13.0707C53.3269 12.1829 52.6571 11.3014 51.734 11.3014H39.5C38.8782 11.3014 38.3301 11.7181 38.1603 12.3175Z" fill="white"/>
</mask>
<g mask="url(#mask1_508_3735)">
<path d="M0.00311279 0.00656128V55.9649H53.3268V0.00656128H0.00311279Z" fill="#F2F2F2"/>
</g>
</g>
</svg>
